ffmpeg started on 2025-05-12 at 13:30:24
Report written to "D:\Convert\FFMetrics\reports\psnr_report-6.txt"
Log level: 32
Command line:
ffmpeg -hide_banner -nostdin -i "G:\\\xc0\xed\xe8\xec\xe5\\\xce\xed\xe3\xee\xe8\xed\xe3\xe8\\!_35_\xcb\xe5\xf2\xee_2024\\DreamCast\\\xc0\xf2\xf0\xe8 - \xcc\xee\xe8 \xe4\xee\xf0\xee\xe3\xe8\xe5 \xec\xee\xec\xe5\xed\xf2\xfb\\[DC] Atri - My Dear Moments - 02_Telegram_HEVC.mkv" -i "G:\\\xc0\xed\xe8\xec\xe5\\\xce\xed\xe3\xee\xe8\xed\xe3\xe8\\!_35_\xcb\xe5\xf2\xee_2024\\DreamCast\\\xc0\xf2\xf0\xe8 - \xcc\xee\xe8 \xe4\xee\xf0\xee\xe3\xe8\xe5 \xec\xee\xec\xe5\xed\xf2\xfb\\[DC] Atri - My Dear Moments - 02_Telegram.mp4" -lavfi "[0:v]settb=AVTB,setpts=PTS-STARTPTS,format=pix_fmts=yuv420p10,fps=24000/1001,scale=1920:1080:flags=bicubic[main];[1:v]settb=AVTB,setpts=PTS-STARTPTS,format=pix_fmts=yuv420p,fps=24000/1001,scale=1920:1080:flags=bicubic[ref];[main][ref]psnr=eof_action=endall:stats_file='D\\:/Convert/FFMetrics/logs/psnr_logfile-6.txt'" -f null -
Input #0, matroska,webm, from 'G:\Аниме\Онгоинги\!_35_Лето_2024\DreamCast\Атри - Мои дорогие моменты\[DC] Atri - My Dear Moments - 02_Telegram_HEVC.mkv':
  Metadata:
    COMPATIBLE_BRANDS: isomiso2avc1mp41
    MAJOR_BRAND     : isom
    MINOR_VERSION   : 512
    ENCODER         : Lavf61.7.100
  Duration: 00:23:46.69, start: -0.021000, bitrate: 1073 kb/s
  Stream #0:0: Video: hevc (Main 10), yuv420p10le(tv, bt709, progressive), 1920x1080 [SAR 1:1 DAR 16:9], 23.98 fps, 23.98 tbr, 1k tbn (default)
      Metadata:
        HANDLER_NAME    : VideoHandler
        VENDOR_ID       : [0][0][0][0]
        ENCODER         : Lavc61.19.100 libx265
        BPS             : 876529
        DURATION        : 00:23:46.591708333
        NUMBER_OF_FRAMES: 34204
        NUMBER_OF_BYTES : 156306223
        _STATISTICS_WRITING_APP: mkvpropedit v66.0.0 ('Josie') 64-bit
        _STATISTICS_WRITING_DATE_UTC: 2025-05-06 13:43:21
        _STATISTICS_TAGS: BPS DURATION NUMBER_OF_FRAMES NUMBER_OF_BYTES
  Stream #0:1: Audio: aac (LC), 48000 Hz, stereo, fltp (default)
      Metadata:
        HANDLER_NAME    : SoundHandler
        VENDOR_ID       : [0][0][0][0]
        ENCODER         : Lavc61.19.100 aac
        BPS             : 193201
        DURATION        : 00:23:46.688000000
        NUMBER_OF_FRAMES: 66877
        NUMBER_OF_BYTES : 34454753
        _STATISTICS_WRITING_APP: mkvpropedit v66.0.0 ('Josie') 64-bit
        _STATISTICS_WRITING_DATE_UTC: 2025-05-06 13:43:21
        _STATISTICS_TAGS: BPS DURATION NUMBER_OF_FRAMES NUMBER_OF_BYTES
Input #1, mov,mp4,m4a,3gp,3g2,mj2, from 'G:\Аниме\Онгоинги\!_35_Лето_2024\DreamCast\Атри - Мои дорогие моменты\[DC] Atri - My Dear Moments - 02_Telegram.mp4':
  Metadata:
    major_brand     : isom
    minor_version   : 512
    compatible_brands: isomiso2avc1mp41
    encoder         : Lavf61.1.100
  Duration: 00:23:46.66, start: 0.000000, bitrate: 3513 kb/s
  Stream #1:0[0x1](und): Video: h264 (High) (avc1 / 0x31637661), yuv420p(tv, bt709, progressive), 1920x1080 [SAR 1:1 DAR 16:9], 3365 kb/s, 23.98 fps, 23.98 tbr, 24k tbn (default)
      Metadata:
        handler_name    : VideoHandler
        vendor_id       : [0][0][0][0]
        encoder         : Lavc61.3.100 h264_qsv
  Stream #1:1[0x2](und): Audio: aac (HE-AACv2) (mp4a / 0x6134706D), 48000 Hz, stereo, fltp, 144 kb/s (default)
      Metadata:
        handler_name    : SoundHandler
        vendor_id       : [0][0][0][0]
Stream mapping:
  Stream #0:0 (hevc) -> settb:default
  Stream #1:0 (h264) -> settb:default
  psnr:default -> Stream #0:0 (wrapped_avframe)
  Stream #0:1 -> #0:1 (aac (native) -> pcm_s16le (native))
Output #0, null, to 'pipe:':
  Metadata:
    COMPATIBLE_BRANDS: isomiso2avc1mp41
    MAJOR_BRAND     : isom
    MINOR_VERSION   : 512
    encoder         : Lavf61.7.100
  Stream #0:0: Video: wrapped_avframe, yuv420p10le(tv, bt709, progressive), 1920x1080 [SAR 1:1 DAR 16:9], q=2-31, 200 kb/s, 23.98 fps, 23.98 tbn
      Metadata:
        encoder         : Lavc61.19.100 wrapped_avframe
  Stream #0:1: Audio: pcm_s16le, 48000 Hz, stereo, s16, 1536 kb/s (default)
      Metadata:
        HANDLER_NAME    : SoundHandler
        VENDOR_ID       : [0][0][0][0]
        _STATISTICS_TAGS: BPS DURATION NUMBER_OF_FRAMES NUMBER_OF_BYTES
        BPS             : 193201
        DURATION        : 00:23:46.688000000
        NUMBER_OF_FRAMES: 66877
        NUMBER_OF_BYTES : 34454753
        _STATISTICS_WRITING_APP: mkvpropedit v66.0.0 ('Josie') 64-bit
        _STATISTICS_WRITING_DATE_UTC: 2025-05-06 13:43:21
        encoder         : Lavc61.19.100 pcm_s16le
frame=  172 fps=0.0 q=-0.0 size=N/A time=00:00:07.17 bitrate=N/A speed=14.1x    frame=  423 fps=416 q=-0.0 size=N/A time=00:00:17.64 bitrate=N/A speed=17.4x    frame=  682 fps=443 q=-0.0 size=N/A time=00:00:28.44 bitrate=N/A speed=18.5x    frame=  934 fps=456 q=-0.0 size=N/A time=00:00:38.95 bitrate=N/A speed=  19x    frame= 1158 fps=451 q=-0.0 size=N/A time=00:00:48.29 bitrate=N/A speed=18.8x    frame= 1380 fps=446 q=-0.0 size=N/A time=00:00:57.55 bitrate=N/A speed=18.6x    frame= 1570 fps=436 q=-0.0 size=N/A time=00:01:05.48 bitrate=N/A speed=18.2x    frame= 1802 fps=437 q=-0.0 size=N/A time=00:01:15.15 bitrate=N/A speed=18.2x    frame= 2033 fps=439 q=-0.0 size=N/A time=00:01:24.79 bitrate=N/A speed=18.3x    frame= 2256 fps=438 q=-0.0 size=N/A time=00:01:34.09 bitrate=N/A speed=18.3x    frame= 2449 fps=433 q=-0.0 size=N/A time=00:01:42.14 bitrate=N/A speed=  18x    frame= 2669 fps=431 q=-0.0 size=N/A time=00:01:51.31 bitrate=N/A speed=  18x    frame= 2887 fps=432 q=-0.0 size=N/A time=00:02:00.41 bitrate=N/A speed=  18x    frame= 3125 fps=433 q=-0.0 size=N/A time=00:02:10.33 bitrate=N/A speed=18.1x    frame= 3347 fps=433 q=-0.0 size=N/A time=00:02:19.59 bitrate=N/A speed=18.1x    frame= 3579 fps=434 q=-0.0 size=N/A time=00:02:29.27 bitrate=N/A speed=18.1x    frame= 3829 fps=437 q=-0.0 size=N/A time=00:02:39.70 bitrate=N/A speed=18.2x    frame= 4094 fps=442 q=-0.0 size=N/A time=00:02:50.75 bitrate=N/A speed=18.4x    frame= 4362 fps=445 q=-0.0 size=N/A time=00:03:01.93 bitrate=N/A speed=18.6x    frame= 4622 fps=449 q=-0.0 size=N/A time=00:03:12.77 bitrate=N/A speed=18.7x    frame= 4854 fps=448 q=-0.0 size=N/A time=00:03:22.45 bitrate=N/A speed=18.7x    frame= 5085 fps=449 q=-0.0 size=N/A time=00:03:32.08 bitrate=N/A speed=18.7x    frame= 5336 fps=450 q=-0.0 size=N/A time=00:03:42.55 bitrate=N/A speed=18.8x    frame= 5543 fps=448 q=-0.0 size=N/A time=00:03:51.18 bitrate=N/A speed=18.7x    frame= 5812 fps=451 q=-0.0 size=N/A time=00:04:02.40 bitrate=N/A speed=18.8x    frame= 6058 fps=452 q=-0.0 size=N/A time=00:04:12.66 bitrate=N/A speed=18.9x    frame= 6292 fps=452 q=-0.0 size=N/A time=00:04:22.42 bitrate=N/A speed=18.9x    frame= 6518 fps=451 q=-0.0 size=N/A time=00:04:31.85 bitrate=N/A speed=18.8x    frame= 6733 fps=451 q=-0.0 size=N/A time=00:04:40.82 bitrate=N/A speed=18.8x    frame= 6976 fps=451 q=-0.0 size=N/A time=00:04:50.95 bitrate=N/A speed=18.8x    frame= 7219 fps=451 q=-0.0 size=N/A time=00:05:01.09 bitrate=N/A speed=18.8x    frame= 7454 fps=451 q=-0.0 size=N/A time=00:05:10.89 bitrate=N/A speed=18.8x    frame= 7711 fps=453 q=-0.0 size=N/A time=00:05:21.61 bitrate=N/A speed=18.9x    frame= 7985 fps=455 q=-0.0 size=N/A time=00:05:33.04 bitrate=N/A speed=  19x    frame= 8212 fps=455 q=-0.0 size=N/A time=00:05:42.50 bitrate=N/A speed=  19x    frame= 8478 fps=456 q=-0.0 size=N/A time=00:05:53.60 bitrate=N/A speed=  19x    frame= 8722 fps=457 q=-0.0 size=N/A time=00:06:03.78 bitrate=N/A speed=19.1x    frame= 8988 fps=458 q=-0.0 size=N/A time=00:06:14.87 bitrate=N/A speed=19.1x    frame= 9269 fps=461 q=-0.0 size=N/A time=00:06:26.59 bitrate=N/A speed=19.2x    frame= 9535 fps=462 q=-0.0 size=N/A time=00:06:37.68 bitrate=N/A speed=19.3x    frame= 9782 fps=463 q=-0.0 size=N/A time=00:06:47.99 bitrate=N/A speed=19.3x    frame=10040 fps=463 q=-0.0 size=N/A time=00:06:58.75 bitrate=N/A speed=19.3x    frame=10281 fps=464 q=-0.0 size=N/A time=00:07:08.80 bitrate=N/A speed=19.3x    frame=10529 fps=464 q=-0.0 size=N/A time=00:07:19.14 bitrate=N/A speed=19.3x    frame=10774 fps=464 q=-0.0 size=N/A time=00:07:29.36 bitrate=N/A speed=19.4x    frame=11045 fps=465 q=-0.0 size=N/A time=00:07:40.66 bitrate=N/A speed=19.4x    frame=11316 fps=467 q=-0.0 size=N/A time=00:07:51.97 bitrate=N/A speed=19.5x    frame=11565 fps=467 q=-0.0 size=N/A time=00:08:02.35 bitrate=N/A speed=19.5x    frame=11773 fps=466 q=-0.0 size=N/A time=00:08:11.03 bitrate=N/A speed=19.4x    frame=12005 fps=465 q=-0.0 size=N/A time=00:08:20.70 bitrate=N/A speed=19.4x    frame=12264 fps=466 q=-0.0 size=N/A time=00:08:31.51 bitrate=N/A speed=19.4x    frame=12490 fps=466 q=-0.0 size=N/A time=00:08:40.93 bitrate=N/A speed=19.4x    frame=12713 fps=465 q=-0.0 size=N/A time=00:08:50.23 bitrate=N/A speed=19.4x    frame=12930 fps=464 q=-0.0 size=N/A time=00:08:59.28 bitrate=N/A speed=19.4x    frame=13209 fps=466 q=-0.0 size=N/A time=00:09:10.92 bitrate=N/A speed=19.4x    frame=13471 fps=466 q=-0.0 size=N/A time=00:09:21.85 bitrate=N/A speed=19.5x    frame=13717 fps=467 q=-0.0 size=N/A time=00:09:32.11 bitrate=N/A speed=19.5x    frame=13954 fps=466 q=-0.0 size=N/A time=00:09:41.99 bitrate=N/A speed=19.5x    frame=14189 fps=466 q=-0.0 size=N/A time=00:09:51.79 bitrate=N/A speed=19.4x    frame=14400 fps=465 q=-0.0 size=N/A time=00:10:00.60 bitrate=N/A speed=19.4x    frame=14613 fps=464 q=-0.0 size=N/A time=00:10:09.48 bitrate=N/A speed=19.4x    frame=14815 fps=463 q=-0.0 size=N/A time=00:10:17.90 bitrate=N/A speed=19.3x    frame=15048 fps=463 q=-0.0 size=N/A time=00:10:27.62 bitrate=N/A speed=19.3x    frame=15293 fps=463 q=-0.0 size=N/A time=00:10:37.84 bitrate=N/A speed=19.3x    frame=15540 fps=464 q=-0.0 size=N/A time=00:10:48.14 bitrate=N/A speed=19.3x    frame=15792 fps=464 q=-0.0 size=N/A time=00:10:58.65 bitrate=N/A speed=19.4x    frame=16058 fps=465 q=-0.0 size=N/A time=00:11:09.75 bitrate=N/A speed=19.4x    frame=16318 fps=465 q=-0.0 size=N/A time=00:11:20.59 bitrate=N/A speed=19.4x    frame=16592 fps=466 q=-0.0 size=N/A time=00:11:32.02 bitrate=N/A speed=19.4x    frame=16830 fps=466 q=-0.0 size=N/A time=00:11:41.95 bitrate=N/A speed=19.4x    frame=17098 fps=467 q=-0.0 size=N/A time=00:11:53.12 bitrate=N/A speed=19.5x    frame=17375 fps=468 q=-0.0 size=N/A time=00:12:04.68 bitrate=N/A speed=19.5x    frame=17648 fps=469 q=-0.0 size=N/A time=00:12:16.06 bitrate=N/A speed=19.5x    frame=17902 fps=469 q=-0.0 size=N/A time=00:12:26.66 bitrate=N/A speed=19.6x    frame=18170 fps=470 q=-0.0 size=N/A time=00:12:37.84 bitrate=N/A speed=19.6x    frame=18410 fps=470 q=-0.0 size=N/A time=00:12:47.85 bitrate=N/A speed=19.6x    frame=18648 fps=470 q=-0.0 size=N/A time=00:12:57.77 bitrate=N/A speed=19.6x    frame=18885 fps=470 q=-0.0 size=N/A time=00:13:07.66 bitrate=N/A speed=19.6x    frame=19166 fps=470 q=-0.0 size=N/A time=00:13:19.38 bitrate=N/A speed=19.6x    frame=19436 fps=471 q=-0.0 size=N/A time=00:13:30.64 bitrate=N/A speed=19.7x    frame=19711 fps=472 q=-0.0 size=N/A time=00:13:42.11 bitrate=N/A speed=19.7x    frame=19972 fps=472 q=-0.0 size=N/A time=00:13:52.99 bitrate=N/A speed=19.7x    frame=20256 fps=473 q=-0.0 size=N/A time=00:14:04.84 bitrate=N/A speed=19.7x    frame=20513 fps=473 q=-0.0 size=N/A time=00:14:15.56 bitrate=N/A speed=19.7x    frame=20775 fps=474 q=-0.0 size=N/A time=00:14:26.49 bitrate=N/A speed=19.8x    frame=21034 fps=474 q=-0.0 size=N/A time=00:14:37.29 bitrate=N/A speed=19.8x    frame=21288 fps=474 q=-0.0 size=N/A time=00:14:47.88 bitrate=N/A speed=19.8x    frame=21549 fps=475 q=-0.0 size=N/A time=00:14:58.77 bitrate=N/A speed=19.8x    frame=21785 fps=475 q=-0.0 size=N/A time=00:15:08.61 bitrate=N/A speed=19.8x    frame=22057 fps=475 q=-0.0 size=N/A time=00:15:19.96 bitrate=N/A speed=19.8x    frame=22306 fps=475 q=-0.0 size=N/A time=00:15:30.34 bitrate=N/A speed=19.8x    frame=22563 fps=476 q=-0.0 size=N/A time=00:15:41.06 bitrate=N/A speed=19.8x    frame=22815 fps=476 q=-0.0 size=N/A time=00:15:51.57 bitrate=N/A speed=19.8x    frame=23074 fps=476 q=-0.0 size=N/A time=00:16:02.37 bitrate=N/A speed=19.9x    frame=23343 fps=476 q=-0.0 size=N/A time=00:16:13.59 bitrate=N/A speed=19.9x    frame=23601 fps=477 q=-0.0 size=N/A time=00:16:24.35 bitrate=N/A speed=19.9x    frame=23880 fps=477 q=-0.0 size=N/A time=00:16:35.99 bitrate=N/A speed=19.9x    frame=24149 fps=478 q=-0.0 size=N/A time=00:16:47.21 bitrate=N/A speed=19.9x    frame=24380 fps=478 q=-0.0 size=N/A time=00:16:56.84 bitrate=N/A speed=19.9x    frame=24650 fps=478 q=-0.0 size=N/A time=00:17:08.11 bitrate=N/A speed=19.9x    frame=24916 fps=478 q=-0.0 size=N/A time=00:17:19.20 bitrate=N/A speed=  20x    frame=25192 fps=479 q=-0.0 size=N/A time=00:17:30.71 bitrate=N/A speed=  20x    frame=25460 fps=479 q=-0.0 size=N/A time=00:17:41.89 bitrate=N/A speed=  20x    frame=25738 fps=480 q=-0.0 size=N/A time=00:17:53.48 bitrate=N/A speed=  20x    frame=26025 fps=481 q=-0.0 size=N/A time=00:18:05.45 bitrate=N/A speed=  20x    frame=26287 fps=481 q=-0.0 size=N/A time=00:18:16.38 bitrate=N/A speed=20.1x    frame=26566 fps=481 q=-0.0 size=N/A time=00:18:28.02 bitrate=N/A speed=20.1x    frame=26849 fps=482 q=-0.0 size=N/A time=00:18:39.82 bitrate=N/A speed=20.1x    frame=27088 fps=482 q=-0.0 size=N/A time=00:18:49.79 bitrate=N/A speed=20.1x    frame=27343 fps=482 q=-0.0 size=N/A time=00:19:00.43 bitrate=N/A speed=20.1x    frame=27561 fps=482 q=-0.0 size=N/A time=00:19:09.52 bitrate=N/A speed=20.1x    frame=27794 fps=481 q=-0.0 size=N/A time=00:19:19.24 bitrate=N/A speed=20.1x    frame=28042 fps=481 q=-0.0 size=N/A time=00:19:29.58 bitrate=N/A speed=20.1x    frame=28296 fps=481 q=-0.0 size=N/A time=00:19:40.17 bitrate=N/A speed=20.1x    frame=28500 fps=481 q=-0.0 size=N/A time=00:19:48.68 bitrate=N/A speed=  20x    frame=28734 fps=480 q=-0.0 size=N/A time=00:19:58.44 bitrate=N/A speed=  20x    frame=28947 fps=480 q=-0.0 size=N/A time=00:20:07.33 bitrate=N/A speed=  20x    frame=29196 fps=480 q=-0.0 size=N/A time=00:20:17.71 bitrate=N/A speed=  20x    frame=29396 fps=479 q=-0.0 size=N/A time=00:20:26.05 bitrate=N/A speed=  20x    frame=29608 fps=478 q=-0.0 size=N/A time=00:20:34.90 bitrate=N/A speed=  20x    frame=29805 fps=478 q=-0.0 size=N/A time=00:20:43.11 bitrate=N/A speed=19.9x    frame=30008 fps=477 q=-0.0 size=N/A time=00:20:51.58 bitrate=N/A speed=19.9x    frame=30244 fps=477 q=-0.0 size=N/A time=00:21:01.42 bitrate=N/A speed=19.9x    frame=30475 fps=477 q=-0.0 size=N/A time=00:21:11.06 bitrate=N/A speed=19.9x    frame=30733 fps=477 q=-0.0 size=N/A time=00:21:21.82 bitrate=N/A speed=19.9x    frame=30968 fps=477 q=-0.0 size=N/A time=00:21:31.62 bitrate=N/A speed=19.9x    frame=31193 fps=476 q=-0.0 size=N/A time=00:21:41.00 bitrate=N/A speed=19.9x    frame=31462 fps=477 q=-0.0 size=N/A time=00:21:52.22 bitrate=N/A speed=19.9x    frame=31643 fps=476 q=-0.0 size=N/A time=00:21:59.77 bitrate=N/A speed=19.8x    frame=31835 fps=475 q=-0.0 size=N/A time=00:22:07.78 bitrate=N/A speed=19.8x    frame=32059 fps=475 q=-0.0 size=N/A time=00:22:17.12 bitrate=N/A speed=19.8x    frame=32314 fps=475 q=-0.0 size=N/A time=00:22:27.76 bitrate=N/A speed=19.8x    frame=32505 fps=474 q=-0.0 size=N/A time=00:22:35.72 bitrate=N/A speed=19.8x    frame=32686 fps=473 q=-0.0 size=N/A time=00:22:43.27 bitrate=N/A speed=19.7x    frame=32902 fps=473 q=-0.0 size=N/A time=00:22:52.28 bitrate=N/A speed=19.7x    frame=33090 fps=472 q=-0.0 size=N/A time=00:23:00.12 bitrate=N/A speed=19.7x    frame=33263 fps=471 q=-0.0 size=N/A time=00:23:07.34 bitrate=N/A speed=19.6x    frame=33458 fps=470 q=-0.0 size=N/A time=00:23:15.47 bitrate=N/A speed=19.6x    frame=33644 fps=469 q=-0.0 size=N/A time=00:23:23.23 bitrate=N/A speed=19.6x    frame=33832 fps=469 q=-0.0 size=N/A time=00:23:31.07 bitrate=N/A speed=19.5x    frame=34064 fps=468 q=-0.0 size=N/A time=00:23:40.75 bitrate=N/A speed=19.5x    [Parsed_psnr_10 @ 000001fdbc5eab40] PSNR y:48.308820 u:49.519170 v:49.384901 average:48.657347 min:39.802650 max:inf
[out#0/null @ 000001fdbb6145c0] video:14697KiB audio:267508KiB subtitle:0KiB other streams:0KiB global headers:0KiB muxing overhead: unknown
frame=34204 fps=468 q=-0.0 Lsize=N/A time=00:23:46.59 bitrate=N/A speed=19.5x    
